<mxfile host="app.diagrams.net" modified="2024-05-24T15:26:56.677Z" agent="Mozilla/5.0 (Macintosh; Intel Mac OS X 10_15_7) AppleWebKit/537.36 (KHTML, like Gecko) Chrome/124.0.0.0 Safari/537.36" etag="jFCw9Wrc5rJyUCPF3P_v" version="24.4.4" type="google">
  <diagram name="Page-1" id="mlkfuMq47cQnj3d8n_ad">
    <mxGraphModel grid="1" page="1" gridSize="10" guides="1" tooltips="1" connect="1" arrows="1" fold="1" pageScale="1" pageWidth="850" pageHeight="1100" math="0" shadow="0">
      <root>
        <mxCell id="0" />
        <mxCell id="1" parent="0" />
        <mxCell id="qS3Cw1ZNUX3qv-RFEaU0-1" value="Fields" style="rounded=0;whiteSpace=wrap;html=1;" vertex="1" parent="1">
          <mxGeometry x="210" y="170" width="80" height="40" as="geometry" />
        </mxCell>
        <mxCell id="qS3Cw1ZNUX3qv-RFEaU0-2" value="Collection0" style="rounded=0;whiteSpace=wrap;html=1;" vertex="1" parent="1">
          <mxGeometry x="290" y="170" width="80" height="40" as="geometry" />
        </mxCell>
        <mxCell id="qS3Cw1ZNUX3qv-RFEaU0-3" value="Collection1" style="rounded=0;whiteSpace=wrap;html=1;" vertex="1" parent="1">
          <mxGeometry x="370" y="170" width="80" height="40" as="geometry" />
        </mxCell>
        <mxCell id="qS3Cw1ZNUX3qv-RFEaU0-4" value="Base Partition + 0" style="rounded=0;whiteSpace=wrap;html=1;" vertex="1" parent="1">
          <mxGeometry x="210" y="280" width="110" height="40" as="geometry" />
        </mxCell>
        <mxCell id="qS3Cw1ZNUX3qv-RFEaU0-5" value="Base Partition + 1" style="rounded=0;whiteSpace=wrap;html=1;" vertex="1" parent="1">
          <mxGeometry x="320" y="280" width="110" height="40" as="geometry" />
        </mxCell>
        <mxCell id="qS3Cw1ZNUX3qv-RFEaU0-6" value="Base Partition + 2" style="rounded=0;whiteSpace=wrap;html=1;" vertex="1" parent="1">
          <mxGeometry x="430" y="280" width="110" height="40" as="geometry" />
        </mxCell>
        <mxCell id="qS3Cw1ZNUX3qv-RFEaU0-7" value="" style="endArrow=none;html=1;rounded=0;dashed=1;" edge="1" parent="1">
          <mxGeometry width="50" height="50" relative="1" as="geometry">
            <mxPoint x="210" y="360" as="sourcePoint" />
            <mxPoint x="210" y="240" as="targetPoint" />
          </mxGeometry>
        </mxCell>
        <mxCell id="qS3Cw1ZNUX3qv-RFEaU0-8" value="Base Partition" style="text;html=1;align=center;verticalAlign=middle;whiteSpace=wrap;rounded=0;" vertex="1" parent="1">
          <mxGeometry x="180" y="360" width="60" height="30" as="geometry" />
        </mxCell>
        <mxCell id="qS3Cw1ZNUX3qv-RFEaU0-9" value="" style="endArrow=classic;html=1;rounded=0;exitX=0.5;exitY=1;exitDx=0;exitDy=0;entryX=0.5;entryY=0;entryDx=0;entryDy=0;" edge="1" parent="1" source="qS3Cw1ZNUX3qv-RFEaU0-1" target="qS3Cw1ZNUX3qv-RFEaU0-5">
          <mxGeometry width="50" height="50" relative="1" as="geometry">
            <mxPoint x="400" y="430" as="sourcePoint" />
            <mxPoint x="450" y="380" as="targetPoint" />
          </mxGeometry>
        </mxCell>
        <mxCell id="qS3Cw1ZNUX3qv-RFEaU0-10" value="" style="endArrow=classic;html=1;rounded=0;exitX=0.5;exitY=1;exitDx=0;exitDy=0;entryX=0.5;entryY=0;entryDx=0;entryDy=0;" edge="1" parent="1" source="qS3Cw1ZNUX3qv-RFEaU0-2" target="qS3Cw1ZNUX3qv-RFEaU0-4">
          <mxGeometry width="50" height="50" relative="1" as="geometry">
            <mxPoint x="260" y="220" as="sourcePoint" />
            <mxPoint x="385" y="290" as="targetPoint" />
          </mxGeometry>
        </mxCell>
        <mxCell id="qS3Cw1ZNUX3qv-RFEaU0-11" value="" style="endArrow=classic;html=1;rounded=0;exitX=0.5;exitY=1;exitDx=0;exitDy=0;entryX=0.5;entryY=0;entryDx=0;entryDy=0;" edge="1" parent="1" source="qS3Cw1ZNUX3qv-RFEaU0-3" target="qS3Cw1ZNUX3qv-RFEaU0-6">
          <mxGeometry width="50" height="50" relative="1" as="geometry">
            <mxPoint x="340" y="220" as="sourcePoint" />
            <mxPoint x="275" y="290" as="targetPoint" />
          </mxGeometry>
        </mxCell>
      </root>
    </mxGraphModel>
  </diagram>
</mxfile>
